<svg xmlns="http://www.w3.org/2000/svg" xmlns:xlink="http://www.w3.org/1999/xlink" width="500" zoomAndPan="magnify" viewBox="0 0 375 374.999991" height="500" preserveAspectRatio="xMidYMid meet" version="1.0"><defs><g/><clipPath id="id1"><path d="M 77 96 L 187 96 L 187 307.257812 L 77 307.257812 Z M 77 96 " clip-rule="nonzero"/></clipPath><clipPath id="id2"><path d="M 110 68.007812 L 129 68.007812 L 129 110 L 110 110 Z M 110 68.007812 " clip-rule="nonzero"/></clipPath><clipPath id="id3"><path d="M 50.742188 183 L 80 183 L 80 218 L 50.742188 218 Z M 50.742188 183 " clip-rule="nonzero"/></clipPath><clipPath id="id4"><path d="M 189 96 L 298 96 L 298 307.257812 L 189 307.257812 Z M 189 96 " clip-rule="nonzero"/></clipPath><clipPath id="id5"><path d="M 247 68.007812 L 265 68.007812 L 265 110 L 247 110 Z M 247 68.007812 " clip-rule="nonzero"/></clipPath><clipPath id="id6"><path d="M 296 183 L 324.492188 183 L 324.492188 218 L 296 218 Z M 296 183 " clip-rule="nonzero"/></clipPath></defs><rect x="-37.5" width="450" fill="#ffffff" y="-37.499999" height="449.999989" fill-opacity="1"/><rect x="-37.5" width="450" fill="#ffffff" y="-37.499999" height="449.999989" fill-opacity="1"/><rect x="-37.5" width="450" fill="#ffffff" y="-37.499999" height="449.999989" fill-opacity="1"/><path fill="#e7a811" d="M 149.144531 89.269531 L 164.613281 78.429688 L 147.78125 86.996094 C 143.5 86.015625 138.199219 86.902344 133.375 89.804688 C 127.878906 93.105469 124.394531 98.175781 123.78125 102.96875 C 128.300781 104.675781 134.410156 103.980469 139.90625 100.675781 C 144.730469 97.777344 148.003906 93.515625 149.144531 89.269531 " fill-opacity="1" fill-rule="nonzero"/><g clip-path="url(#id1)"><path fill="#e7a811" d="M 186.160156 303.542969 C 162.53125 302.980469 139.246094 294.101562 120.8125 279.164062 C 102.308594 264.296875 88.667969 243.386719 82.65625 220.308594 C 76.519531 197.273438 78.089844 172.203125 87.277344 150.082031 C 96.335938 127.925781 112.785156 108.816406 133.5 96.613281 C 112.632812 108.546875 95.839844 127.5 86.421875 149.722656 C 76.867188 171.902344 74.917969 197.273438 80.855469 220.769531 C 86.660156 244.304688 100.28125 265.847656 119.046875 281.328125 C 137.734375 296.871094 161.570312 306.363281 186.039062 307.265625 L 186.160156 303.542969 " fill-opacity="1" fill-rule="nonzero"/></g><g clip-path="url(#id2)"><path fill="#e7a811" d="M 123.308594 84.816406 L 128.171875 68.011719 L 120.824219 83.890625 C 116.945312 85.5625 113.480469 89.210938 111.65625 94.09375 C 109.582031 99.652344 110.15625 105.398438 112.738281 109.324219 C 117.257812 108.054688 121.460938 104.09375 123.535156 98.535156 C 125.359375 93.652344 125.136719 88.628906 123.308594 84.816406 " fill-opacity="1" fill-rule="nonzero"/></g><path fill="#e7a811" d="M 105.566406 97.960938 L 107.4375 80.566406 L 102.957031 97.476562 C 99.429688 99.800781 96.648438 103.996094 95.699219 109.121094 C 94.621094 114.957031 96.183594 120.515625 99.40625 123.929688 C 103.640625 121.894531 107.089844 117.265625 108.171875 111.429688 C 109.121094 106.304688 108.027344 101.394531 105.566406 97.960938 " fill-opacity="1" fill-rule="nonzero"/><path fill="#e7a811" d="M 90.371094 113.988281 L 89.195312 96.53125 L 87.71875 113.964844 C 84.648438 116.867188 82.640625 121.480469 82.59375 126.691406 C 82.542969 132.625 85.050781 137.828125 88.816406 140.632812 C 92.628906 137.894531 95.226562 132.734375 95.277344 126.800781 C 95.320312 121.589844 93.394531 116.941406 90.371094 113.988281 " fill-opacity="1" fill-rule="nonzero"/><path fill="#e7a811" d="M 78.191406 132.410156 L 74.003906 115.425781 L 75.574219 132.847656 C 73.054688 136.238281 71.878906 141.128906 72.738281 146.273438 C 73.71875 152.125 77.089844 156.8125 81.285156 158.921875 C 84.566406 155.558594 86.226562 150.027344 85.246094 144.175781 C 84.386719 139.035156 81.679688 134.792969 78.191406 132.410156 " fill-opacity="1" fill-rule="nonzero"/><path fill="#e7a811" d="M 69.394531 152.667969 L 62.324219 136.667969 L 66.894531 153.554688 C 65 157.332031 64.691406 162.355469 66.429688 167.265625 C 68.414062 172.859375 72.546875 176.890625 77.042969 178.238281 C 79.691406 174.359375 80.367188 168.625 78.386719 163.03125 C 76.644531 158.117188 73.246094 154.410156 69.394531 152.667969 " fill-opacity="1" fill-rule="nonzero"/><path fill="#e7a811" d="M 64.25 174.144531 L 54.507812 159.617188 L 61.941406 175.453125 C 60.730469 179.503906 61.296875 184.503906 63.863281 189.039062 C 66.785156 194.203125 71.558594 197.453125 76.21875 198 C 78.152344 193.71875 77.824219 187.953125 74.902344 182.789062 C 72.335938 178.253906 68.34375 175.191406 64.25 174.144531 " fill-opacity="1" fill-rule="nonzero"/><g clip-path="url(#id3)"><path fill="#e7a811" d="M 62.910156 196.191406 L 50.792969 183.578125 L 60.863281 197.878906 C 60.375 202.078125 61.800781 206.902344 65.117188 210.921875 C 68.890625 215.503906 74.152344 217.878906 78.839844 217.605469 C 80 213.054688 78.675781 207.433594 74.898438 202.855469 C 71.585938 198.832031 67.121094 196.511719 62.910156 196.191406 " fill-opacity="1" fill-rule="nonzero"/></g><path fill="#e7a811" d="M 65.417969 218.136719 L 51.292969 207.816406 L 63.695312 220.152344 C 63.945312 224.371094 66.183594 228.875 70.148438 232.261719 C 74.660156 236.113281 80.253906 237.539062 84.824219 236.457031 C 85.175781 231.769531 82.894531 226.46875 78.382812 222.613281 C 74.421875 219.230469 69.625 217.71875 65.417969 218.136719 " fill-opacity="1" fill-rule="nonzero"/><path fill="#e7a811" d="M 71.699219 239.308594 L 55.996094 231.601562 L 70.351562 241.597656 C 71.328125 245.707031 74.316406 249.753906 78.808594 252.398438 C 83.917969 255.410156 89.675781 255.839844 93.988281 253.980469 C 93.523438 249.308594 90.355469 244.480469 85.242188 241.46875 C 80.753906 238.824219 75.765625 238.171875 71.699219 239.308594 " fill-opacity="1" fill-rule="nonzero"/><path fill="#e7a811" d="M 81.558594 259.070312 L 64.757812 254.207031 L 80.628906 261.558594 C 82.304688 265.4375 85.949219 268.902344 90.832031 270.726562 C 96.386719 272.804688 102.132812 272.226562 106.054688 269.648438 C 104.789062 265.125 100.828125 260.921875 95.273438 258.84375 C 90.390625 257.019531 85.367188 257.242188 81.558594 259.070312 " fill-opacity="1" fill-rule="nonzero"/><path fill="#e7a811" d="M 94.699219 276.820312 L 77.308594 274.949219 L 94.214844 279.429688 C 96.539062 282.960938 100.730469 285.738281 105.855469 286.6875 C 111.6875 287.769531 117.246094 286.203125 120.660156 282.980469 C 118.625 278.746094 113.996094 275.296875 108.164062 274.214844 C 103.039062 273.265625 98.132812 274.359375 94.699219 276.820312 " fill-opacity="1" fill-rule="nonzero"/><path fill="#e7a811" d="M 110.71875 292.019531 L 93.269531 293.195312 L 110.699219 294.671875 C 113.597656 297.746094 118.210938 299.753906 123.421875 299.796875 C 129.351562 299.847656 134.554688 297.34375 137.359375 293.574219 C 134.621094 289.761719 129.460938 287.164062 123.53125 287.113281 C 118.320312 287.066406 113.675781 288.996094 110.71875 292.019531 " fill-opacity="1" fill-rule="nonzero"/><path fill="#e7a811" d="M 140.621094 110.425781 L 157.710938 106.71875 L 140.257812 107.796875 C 136.9375 105.179688 132.082031 103.867188 126.921875 104.582031 C 121.046875 105.394531 116.265625 108.632812 114.039062 112.769531 C 117.304688 116.144531 122.785156 117.960938 128.664062 117.144531 C 133.824219 116.429688 138.140625 113.847656 140.621094 110.425781 " fill-opacity="1" fill-rule="nonzero"/><path fill="#e7a811" d="M 124.316406 122.429688 L 140.15625 115.011719 L 123.375 119.949219 C 119.558594 118.136719 114.535156 117.933594 109.660156 119.78125 C 104.113281 121.882812 100.171875 126.105469 98.921875 130.632812 C 102.859375 133.195312 108.605469 133.746094 114.152344 131.644531 C 119.027344 129.796875 122.65625 126.316406 124.316406 122.429688 " fill-opacity="1" fill-rule="nonzero"/><path fill="#e7a811" d="M 110.152344 137.953125 L 123.941406 127.195312 L 108.683594 135.742188 C 104.558594 134.824219 99.613281 135.75 95.273438 138.632812 C 90.332031 141.917969 87.429688 146.910156 87.21875 151.601562 C 91.625 153.226562 97.351562 152.484375 102.292969 149.199219 C 106.632812 146.316406 109.398438 142.113281 110.152344 137.953125 " fill-opacity="1" fill-rule="nonzero"/><path fill="#e7a811" d="M 99.796875 156.570312 L 110.847656 143.011719 L 97.875 154.742188 C 93.648438 154.765625 89.035156 156.765625 85.445312 160.542969 C 81.359375 164.84375 79.636719 170.359375 80.476562 174.980469 C 85.132812 175.582031 90.550781 173.585938 94.636719 169.28125 C 98.226562 165.503906 99.988281 160.792969 99.796875 156.570312 " fill-opacity="1" fill-rule="nonzero"/><path fill="#e7a811" d="M 94.253906 176.921875 L 102.015625 161.246094 L 91.972656 175.570312 C 87.859375 176.53125 83.804688 179.507812 81.148438 183.992188 C 78.121094 189.09375 77.667969 194.851562 79.515625 199.171875 C 84.1875 198.722656 89.023438 195.570312 92.054688 190.464844 C 94.710938 185.984375 95.382812 180.996094 94.253906 176.921875 " fill-opacity="1" fill-rule="nonzero"/><path fill="#e7a811" d="M 93.128906 199.683594 L 97.203125 182.671875 L 90.601562 198.871094 C 86.804688 200.722656 83.515625 204.53125 81.921875 209.492188 C 80.105469 215.140625 80.945312 220.855469 83.707031 224.652344 C 88.164062 223.175781 92.175781 219.023438 93.992188 213.375 C 95.589844 208.414062 95.132812 203.402344 93.128906 199.683594 " fill-opacity="1" fill-rule="nonzero"/><path fill="#e7a811" d="M 97.679688 221.773438 L 97.867188 204.28125 L 95.035156 221.542969 C 91.746094 224.195312 89.386719 228.640625 88.933594 233.832031 C 88.417969 239.742188 90.511719 245.125 94.046875 248.214844 C 98.0625 245.78125 101.054688 240.84375 101.566406 234.929688 C 102.019531 229.738281 100.460938 224.953125 97.679688 221.773438 " fill-opacity="1" fill-rule="nonzero"/><path fill="#e7a811" d="M 107.394531 241.761719 L 103.691406 224.667969 L 104.769531 242.128906 C 102.152344 245.445312 100.839844 250.300781 101.554688 255.464844 C 102.367188 261.34375 105.605469 266.125 109.738281 268.351562 C 113.113281 265.085938 114.929688 259.601562 114.117188 253.722656 C 113.398438 248.5625 110.816406 244.246094 107.394531 241.761719 " fill-opacity="1" fill-rule="nonzero"/><path fill="#e7a811" d="M 120.203125 259.117188 L 112.785156 243.273438 L 117.722656 260.054688 C 115.910156 263.875 115.710938 268.902344 117.554688 273.773438 C 119.65625 279.324219 123.875 283.265625 128.402344 284.515625 C 130.964844 280.582031 131.515625 274.832031 129.414062 269.28125 C 127.570312 264.40625 124.089844 260.777344 120.203125 259.117188 " fill-opacity="1" fill-rule="nonzero"/><path fill="#e7a811" d="M 136.667969 273.097656 L 125.914062 259.300781 L 134.460938 274.566406 C 133.542969 278.691406 134.464844 283.636719 137.347656 287.976562 C 140.632812 292.921875 145.621094 295.824219 150.3125 296.035156 C 151.9375 291.628906 151.195312 285.898438 147.910156 280.957031 C 145.027344 276.617188 140.828125 273.847656 136.667969 273.097656 " fill-opacity="1" fill-rule="nonzero"/><path fill="#e7a811" d="M 226.101562 89.269531 L 210.636719 78.429688 L 227.46875 86.996094 C 231.75 86.015625 237.050781 86.902344 241.875 89.804688 C 247.371094 93.105469 250.851562 98.175781 251.46875 102.96875 C 246.949219 104.675781 240.839844 103.980469 235.34375 100.675781 C 230.519531 97.777344 227.246094 93.515625 226.101562 89.269531 " fill-opacity="1" fill-rule="nonzero"/><g clip-path="url(#id4)"><path fill="#e7a811" d="M 189.089844 303.542969 C 212.71875 302.980469 236 294.101562 254.433594 279.164062 C 272.941406 264.296875 286.582031 243.386719 292.589844 220.308594 C 298.730469 197.269531 297.15625 172.203125 287.96875 150.082031 C 278.914062 127.925781 262.460938 108.816406 241.746094 96.613281 C 262.617188 108.546875 279.40625 127.5 288.828125 149.722656 C 298.378906 171.902344 300.332031 197.269531 294.394531 220.769531 C 288.589844 244.304688 274.964844 265.847656 256.203125 281.328125 C 237.515625 296.871094 213.675781 306.363281 189.210938 307.265625 L 189.089844 303.542969 " fill-opacity="1" fill-rule="nonzero"/></g><g clip-path="url(#id5)"><path fill="#e7a811" d="M 251.9375 84.816406 L 247.074219 68.011719 L 254.421875 83.890625 C 258.300781 85.5625 261.765625 89.210938 263.585938 94.09375 C 265.664062 99.652344 265.089844 105.398438 262.511719 109.324219 C 257.988281 108.054688 253.789062 104.09375 251.707031 98.535156 C 249.886719 93.652344 250.105469 88.628906 251.9375 84.816406 " fill-opacity="1" fill-rule="nonzero"/></g><path fill="#e7a811" d="M 269.683594 97.960938 L 267.8125 80.566406 L 272.292969 97.476562 C 275.820312 99.800781 278.597656 103.996094 279.546875 109.121094 C 280.628906 114.957031 279.0625 120.515625 275.839844 123.929688 C 271.609375 121.894531 268.15625 117.265625 267.078125 111.429688 C 266.128906 106.304688 267.21875 101.394531 269.683594 97.960938 " fill-opacity="1" fill-rule="nonzero"/><path fill="#e7a811" d="M 284.875 113.988281 L 286.050781 96.53125 L 287.527344 113.964844 C 290.597656 116.867188 292.609375 121.480469 292.652344 126.691406 C 292.703125 132.625 290.199219 137.828125 286.433594 140.632812 C 282.617188 137.894531 280.023438 132.734375 279.972656 126.800781 C 279.925781 121.589844 281.855469 116.941406 284.875 113.988281 " fill-opacity="1" fill-rule="nonzero"/><path fill="#e7a811" d="M 297.058594 132.410156 L 301.246094 115.425781 L 299.675781 132.847656 C 302.195312 136.238281 303.371094 141.128906 302.507812 146.269531 C 301.53125 152.125 298.160156 156.8125 293.964844 158.917969 C 290.679688 155.558594 289.023438 150.027344 290 144.175781 C 290.863281 139.035156 293.566406 134.792969 297.058594 132.410156 " fill-opacity="1" fill-rule="nonzero"/><path fill="#e7a811" d="M 305.851562 152.667969 L 312.925781 136.667969 L 308.351562 153.554688 C 310.246094 157.332031 310.554688 162.355469 308.816406 167.269531 C 306.835938 172.859375 302.703125 176.890625 298.203125 178.238281 C 295.554688 174.359375 294.878906 168.625 296.863281 163.03125 C 298.601562 158.117188 302 154.410156 305.851562 152.667969 " fill-opacity="1" fill-rule="nonzero"/><path fill="#e7a811" d="M 310.996094 174.148438 L 320.742188 159.621094 L 313.304688 175.453125 C 314.515625 179.503906 313.949219 184.503906 311.382812 189.039062 C 308.460938 194.203125 303.691406 197.453125 299.023438 198 C 297.089844 193.722656 297.421875 187.957031 300.347656 182.789062 C 302.914062 178.253906 306.902344 175.195312 310.996094 174.148438 " fill-opacity="1" fill-rule="nonzero"/><g clip-path="url(#id6)"><path fill="#e7a811" d="M 312.335938 196.191406 L 324.453125 183.578125 L 314.382812 197.878906 C 314.871094 202.078125 313.445312 206.902344 310.128906 210.921875 C 306.359375 215.503906 301.09375 217.878906 296.40625 217.605469 C 295.246094 213.054688 296.574219 207.433594 300.347656 202.855469 C 303.660156 198.832031 308.125 196.511719 312.335938 196.191406 " fill-opacity="1" fill-rule="nonzero"/></g><path fill="#e7a811" d="M 309.832031 218.136719 L 323.953125 207.816406 L 311.550781 220.152344 C 311.304688 224.371094 309.0625 228.875 305.101562 232.261719 C 300.589844 236.113281 294.992188 237.539062 290.421875 236.457031 C 290.070312 231.769531 292.351562 226.46875 296.863281 222.613281 C 300.828125 219.230469 305.625 217.71875 309.832031 218.136719 " fill-opacity="1" fill-rule="nonzero"/><path fill="#e7a811" d="M 303.546875 239.308594 L 319.25 231.601562 L 304.894531 241.597656 C 303.917969 245.710938 300.929688 249.753906 296.4375 252.398438 C 291.328125 255.410156 285.570312 255.839844 281.257812 253.980469 C 281.722656 249.308594 284.890625 244.480469 290.003906 241.46875 C 294.492188 238.824219 299.480469 238.171875 303.546875 239.308594 " fill-opacity="1" fill-rule="nonzero"/><path fill="#e7a811" d="M 293.691406 259.070312 L 310.492188 254.207031 L 294.617188 261.558594 C 292.945312 265.4375 289.296875 268.902344 284.414062 270.726562 C 278.859375 272.804688 273.113281 272.226562 269.191406 269.648438 C 270.460938 265.125 274.421875 260.921875 279.976562 258.84375 C 284.855469 257.019531 289.882812 257.242188 293.691406 259.070312 " fill-opacity="1" fill-rule="nonzero"/><path fill="#e7a811" d="M 280.550781 276.820312 L 297.9375 274.949219 L 281.03125 279.429688 C 278.707031 282.960938 274.515625 285.738281 269.394531 286.6875 C 263.558594 287.769531 258 286.207031 254.585938 282.980469 C 256.621094 278.746094 261.25 275.296875 267.082031 274.214844 C 272.207031 273.265625 277.117188 274.359375 280.550781 276.820312 " fill-opacity="1" fill-rule="nonzero"/><path fill="#e7a811" d="M 264.527344 292.019531 L 281.976562 293.195312 L 264.550781 294.671875 C 261.648438 297.746094 257.035156 299.753906 251.828125 299.796875 C 245.894531 299.847656 240.691406 297.34375 237.886719 293.574219 C 240.628906 289.761719 245.785156 287.164062 251.71875 287.113281 C 256.925781 287.066406 261.574219 288.996094 264.527344 292.019531 " fill-opacity="1" fill-rule="nonzero"/><path fill="#e7a811" d="M 234.628906 110.425781 L 217.535156 106.71875 L 234.988281 107.796875 C 238.308594 105.179688 243.164062 103.867188 248.324219 104.582031 C 254.203125 105.394531 258.984375 108.632812 261.207031 112.769531 C 257.941406 116.144531 252.460938 117.960938 246.585938 117.144531 C 241.421875 116.429688 237.109375 113.847656 234.628906 110.425781 " fill-opacity="1" fill-rule="nonzero"/><path fill="#e7a811" d="M 250.929688 122.429688 L 235.09375 115.011719 L 251.871094 119.949219 C 255.6875 118.136719 260.714844 117.933594 265.585938 119.78125 C 271.136719 121.882812 275.074219 126.105469 276.324219 130.632812 C 272.390625 133.195312 266.640625 133.746094 261.09375 131.644531 C 256.222656 129.796875 252.589844 126.316406 250.929688 122.429688 " fill-opacity="1" fill-rule="nonzero"/><path fill="#e7a811" d="M 265.097656 137.953125 L 251.308594 127.195312 L 266.566406 135.742188 C 270.691406 134.824219 275.632812 135.75 279.976562 138.632812 C 284.914062 141.917969 287.816406 146.910156 288.027344 151.601562 C 283.625 153.222656 277.898438 152.480469 272.957031 149.199219 C 268.617188 146.3125 265.851562 142.113281 265.097656 137.953125 " fill-opacity="1" fill-rule="nonzero"/><path fill="#e7a811" d="M 275.449219 156.570312 L 264.398438 143.011719 L 277.375 154.742188 C 281.597656 154.765625 286.214844 156.765625 289.804688 160.542969 C 293.890625 164.84375 295.609375 170.359375 294.769531 174.980469 C 290.113281 175.582031 284.699219 173.582031 280.613281 169.28125 C 277.019531 165.503906 275.261719 160.792969 275.449219 156.570312 " fill-opacity="1" fill-rule="nonzero"/><path fill="#e7a811" d="M 280.992188 176.921875 L 273.234375 161.242188 L 283.273438 175.566406 C 287.386719 176.53125 291.441406 179.507812 294.101562 183.992188 C 297.132812 189.09375 297.578125 194.851562 295.734375 199.171875 C 291.0625 198.722656 286.222656 195.570312 283.195312 190.464844 C 280.535156 185.984375 279.867188 180.996094 280.992188 176.921875 " fill-opacity="1" fill-rule="nonzero"/><path fill="#e7a811" d="M 282.121094 199.683594 L 278.042969 182.667969 L 284.644531 198.871094 C 288.441406 200.722656 291.734375 204.53125 293.328125 209.492188 C 295.144531 215.140625 294.300781 220.851562 291.542969 224.652344 C 287.085938 223.175781 283.070312 219.023438 281.257812 213.375 C 279.660156 208.414062 280.117188 203.402344 282.121094 199.683594 " fill-opacity="1" fill-rule="nonzero"/><path fill="#e7a811" d="M 277.570312 221.773438 L 277.378906 204.28125 L 280.210938 221.542969 C 283.5 224.195312 285.863281 228.640625 286.3125 233.832031 C 286.828125 239.742188 284.734375 245.125 281.199219 248.214844 C 277.183594 245.78125 274.195312 240.84375 273.679688 234.929688 C 273.230469 229.738281 274.789062 224.953125 277.570312 221.773438 " fill-opacity="1" fill-rule="nonzero"/><path fill="#e7a811" d="M 267.851562 241.761719 L 271.558594 224.667969 L 270.476562 242.128906 C 273.09375 245.445312 274.410156 250.300781 273.695312 255.464844 C 272.878906 261.34375 269.644531 266.125 265.507812 268.351562 C 262.132812 265.085938 260.320312 259.601562 261.132812 253.722656 C 261.847656 248.5625 264.429688 244.246094 267.851562 241.761719 " fill-opacity="1" fill-rule="nonzero"/><path fill="#e7a811" d="M 255.042969 259.117188 L 262.460938 243.273438 L 257.523438 260.054688 C 259.339844 263.875 259.539062 268.902344 257.691406 273.773438 C 255.589844 279.324219 251.371094 283.265625 246.847656 284.515625 C 244.28125 280.582031 243.730469 274.832031 245.832031 269.28125 C 247.679688 264.40625 251.15625 260.777344 255.042969 259.117188 " fill-opacity="1" fill-rule="nonzero"/><path fill="#e7a811" d="M 238.578125 273.097656 L 249.332031 259.300781 L 240.785156 274.566406 C 241.703125 278.691406 240.78125 283.636719 237.898438 287.976562 C 234.617188 292.921875 229.625 295.824219 224.933594 296.035156 C 223.308594 291.628906 224.054688 285.898438 227.335938 280.957031 C 230.21875 276.617188 234.421875 273.847656 238.578125 273.097656 " fill-opacity="1" fill-rule="nonzero"/><g fill="#cb1426" fill-opacity="1"><g transform="translate(133.35502, 254.249983)"><g><path d="M 59.75 1.796875 C 43.601562 1.796875 31.039062 -3.4375 22.0625 -13.90625 C 13.09375 -24.375 8.609375 -38.816406 8.609375 -57.234375 C 8.609375 -69.554688 10.671875 -80.320312 14.796875 -89.53125 C 18.929688 -98.75 24.796875 -105.835938 32.390625 -110.796875 C 39.984375 -115.765625 48.804688 -118.25 58.859375 -118.25 C 64.359375 -118.25 69.648438 -117.53125 74.734375 -116.09375 C 79.816406 -114.65625 84.148438 -113.039062 87.734375 -111.25 C 91.328125 -109.457031 93.125 -108.5 93.125 -108.375 L 91.515625 -99.765625 C 91.515625 -99.890625 89.78125 -100.785156 86.3125 -102.453125 C 82.84375 -104.128906 78.800781 -105.6875 74.1875 -107.125 C 69.582031 -108.5625 64.953125 -109.28125 60.296875 -109.28125 C 48.691406 -109.28125 39.597656 -104.882812 33.015625 -96.09375 C 26.429688 -87.300781 23.140625 -74.46875 23.140625 -57.59375 C 23.140625 -40.96875 26.488281 -28.40625 33.1875 -19.90625 C 39.894531 -11.414062 49.289062 -7.171875 61.375 -7.171875 C 67.707031 -7.171875 73.265625 -8.488281 78.046875 -11.125 C 82.835938 -13.757812 86.640625 -16.570312 89.453125 -19.5625 C 92.265625 -22.550781 93.671875 -24.285156 93.671875 -24.765625 L 98.6875 -19.015625 C 98.6875 -18.421875 97.128906 -16.359375 94.015625 -12.828125 C 90.910156 -9.296875 86.457031 -5.972656 80.65625 -2.859375 C 74.851562 0.242188 67.882812 1.796875 59.75 1.796875 Z M 59.75 1.796875 "/></g></g></g><path fill="#ffffff" d="M 121.402344 171.976562 L 253.363281 171.976562 C 261.761719 171.976562 268.566406 178.792969 268.566406 187.203125 C 268.566406 195.609375 261.761719 202.425781 253.363281 202.425781 L 121.402344 202.425781 C 113.007812 202.425781 106.199219 195.609375 106.199219 187.203125 C 106.199219 178.792969 113.007812 171.976562 121.402344 171.976562 " fill-opacity="1" fill-rule="nonzero"/><g fill="#cb1426" fill-opacity="1"><g transform="translate(106.199547, 195.262066)"><g><path d="M 15.109375 -11.15625 C 15.003906 -11.257812 14.890625 -11.40625 14.765625 -11.59375 C 14.648438 -11.78125 14.535156 -11.972656 14.421875 -12.171875 C 14.398438 -12.203125 14.335938 -12.304688 14.234375 -12.484375 C 14.128906 -12.660156 14.035156 -12.8125 13.953125 -12.9375 C 13.867188 -13.0625 13.785156 -13.164062 13.703125 -13.25 C 13.171875 -13.769531 12.582031 -14.160156 11.9375 -14.421875 C 11.300781 -14.679688 10.625 -14.8125 9.90625 -14.8125 C 8.882812 -14.8125 7.925781 -14.546875 7.03125 -14.015625 C 6.144531 -13.484375 5.4375 -12.707031 4.90625 -11.6875 C 4.375 -10.664062 4.109375 -9.457031 4.109375 -8.0625 C 4.109375 -6.632812 4.363281 -5.382812 4.875 -4.3125 C 5.394531 -3.238281 6.128906 -2.410156 7.078125 -1.828125 C 8.035156 -1.242188 9.144531 -0.953125 10.40625 -0.953125 C 11.476562 -0.953125 12.429688 -1.175781 13.265625 -1.625 C 14.109375 -2.070312 14.757812 -2.734375 15.21875 -3.609375 L 15.796875 -3.515625 L 15.6875 -1.28125 C 14.820312 -0.800781 13.828125 -0.414062 12.703125 -0.125 C 11.578125 0.164062 10.53125 0.3125 9.5625 0.3125 C 8.007812 0.3125 6.609375 -0.00390625 5.359375 -0.640625 C 4.109375 -1.285156 3.125 -2.203125 2.40625 -3.390625 C 1.6875 -4.585938 1.328125 -5.988281 1.328125 -7.59375 C 1.328125 -9.101562 1.691406 -10.476562 2.421875 -11.71875 C 3.160156 -12.957031 4.207031 -13.9375 5.5625 -14.65625 C 6.914062 -15.375 8.476562 -15.734375 10.25 -15.734375 C 11.863281 -15.734375 13.503906 -15.410156 15.171875 -14.765625 L 15.65625 -11.1875 Z M 15.109375 -11.15625 "/></g></g></g><g fill="#cb1426" fill-opacity="1"><g transform="translate(123.101907, 195.262066)"><g><path d="M 4.6875 -6.3125 L 4.46875 -5.734375 C 4.113281 -4.804688 3.832031 -4.046875 3.625 -3.453125 C 3.414062 -2.859375 3.3125 -2.398438 3.3125 -2.078125 C 3.3125 -1.785156 3.414062 -1.550781 3.625 -1.375 C 3.84375 -1.195312 4.085938 -1.0625 4.359375 -0.96875 C 4.628906 -0.882812 4.960938 -0.800781 5.359375 -0.71875 L 5.578125 -0.671875 L 5.578125 0 L -0.015625 0 L -0.015625 -0.609375 C 0.0976562 -0.703125 0.210938 -0.773438 0.328125 -0.828125 C 0.441406 -0.890625 0.585938 -0.957031 0.765625 -1.03125 C 1.035156 -1.144531 1.253906 -1.257812 1.421875 -1.375 C 1.597656 -1.488281 1.753906 -1.675781 1.890625 -1.9375 C 1.960938 -2.09375 2.039062 -2.269531 2.125 -2.46875 C 2.207031 -2.675781 2.257812 -2.8125 2.28125 -2.875 L 2.4375 -3.234375 L 6.859375 -14.59375 C 6.890625 -14.675781 6.914062 -14.828125 6.9375 -15.046875 C 6.945312 -15.203125 6.957031 -15.328125 6.96875 -15.421875 C 6.988281 -15.523438 7.03125 -15.617188 7.09375 -15.703125 C 7.476562 -15.703125 7.8125 -15.660156 8.09375 -15.578125 C 8.375 -15.492188 8.65625 -15.347656 8.9375 -15.140625 L 14.375 -2.09375 C 14.476562 -1.84375 14.597656 -1.644531 14.734375 -1.5 C 14.867188 -1.351562 15.007812 -1.242188 15.15625 -1.171875 C 15.300781 -1.097656 15.5 -1.007812 15.75 -0.90625 C 15.96875 -0.832031 16.195312 -0.734375 16.4375 -0.609375 L 16.40625 0 L 9.515625 0 L 9.484375 -0.609375 C 9.859375 -0.722656 10.175781 -0.832031 10.4375 -0.9375 C 10.707031 -1.050781 10.945312 -1.207031 11.15625 -1.40625 C 11.375 -1.601562 11.484375 -1.847656 11.484375 -2.140625 C 11.484375 -2.453125 11.085938 -3.625 10.296875 -5.65625 C 10.242188 -5.769531 10.195312 -5.882812 10.15625 -6 C 10.113281 -6.113281 10.078125 -6.21875 10.046875 -6.3125 Z M 7.265625 -13.1875 L 5.09375 -7.34375 L 9.609375 -7.34375 Z M 7.265625 -13.1875 "/></g></g></g><g fill="#cb1426" fill-opacity="1"><g transform="translate(139.411617, 195.262066)"><g><path d="M 9.234375 -2.96875 C 9.484375 -3.65625 9.921875 -4.707031 10.546875 -6.125 C 11.367188 -8.082031 11.992188 -9.625 12.421875 -10.75 C 12.847656 -11.882812 13.0625 -12.703125 13.0625 -13.203125 C 13.0625 -13.503906 12.984375 -13.742188 12.828125 -13.921875 C 12.671875 -14.097656 12.476562 -14.222656 12.25 -14.296875 C 12.019531 -14.378906 11.722656 -14.460938 11.359375 -14.546875 C 11.078125 -14.597656 10.867188 -14.648438 10.734375 -14.703125 C 10.703125 -14.816406 10.6875 -14.929688 10.6875 -15.046875 C 10.6875 -15.179688 10.703125 -15.3125 10.734375 -15.4375 L 16.84375 -15.4375 C 16.875 -15.21875 16.890625 -15 16.890625 -14.78125 C 16.722656 -14.664062 16.523438 -14.550781 16.296875 -14.4375 C 16.078125 -14.332031 15.863281 -14.234375 15.65625 -14.140625 L 15.359375 -14 C 15.078125 -13.875 14.820312 -13.644531 14.59375 -13.3125 C 14.375 -12.976562 14.1875 -12.625 14.03125 -12.25 C 13.875 -11.875 13.695312 -11.398438 13.5 -10.828125 C 13.300781 -10.316406 13.179688 -10 13.140625 -9.875 C 12.554688 -8.519531 11.8125 -6.695312 10.90625 -4.40625 C 10.007812 -2.113281 9.414062 -0.601562 9.125 0.125 C 9.082031 0.132812 8.992188 0.148438 8.859375 0.171875 C 8.734375 0.203125 8.628906 0.21875 8.546875 0.21875 C 8.335938 0.21875 8.175781 0.210938 8.0625 0.203125 C 6.320312 -3.796875 4.378906 -8.164062 2.234375 -12.90625 C 2.035156 -13.320312 1.835938 -13.640625 1.640625 -13.859375 C 1.453125 -14.078125 1.234375 -14.242188 0.984375 -14.359375 C 0.734375 -14.472656 0.363281 -14.609375 -0.125 -14.765625 L -0.09375 -15.4375 L 6.890625 -15.4375 C 6.890625 -15.363281 6.890625 -15.300781 6.890625 -15.25 C 6.898438 -15.195312 6.910156 -15.148438 6.921875 -15.109375 C 6.929688 -15.066406 6.9375 -15.015625 6.9375 -14.953125 C 6.945312 -14.890625 6.953125 -14.8125 6.953125 -14.71875 C 6.785156 -14.664062 6.632812 -14.628906 6.5 -14.609375 C 5.957031 -14.472656 5.53125 -14.328125 5.21875 -14.171875 C 4.914062 -14.023438 4.765625 -13.800781 4.765625 -13.5 C 4.765625 -13.300781 4.953125 -12.757812 5.328125 -11.875 C 5.710938 -10.988281 6.316406 -9.625 7.140625 -7.78125 C 8.160156 -5.53125 8.859375 -3.925781 9.234375 -2.96875 Z M 9.234375 -2.96875 "/></g></g></g><g fill="#cb1426" fill-opacity="1"><g transform="translate(156.065064, 195.262066)"><g><path d="M 9.53125 -15.734375 C 11.019531 -15.734375 12.382812 -15.398438 13.625 -14.734375 C 14.863281 -14.066406 15.847656 -13.125 16.578125 -11.90625 C 17.304688 -10.6875 17.671875 -9.28125 17.671875 -7.6875 C 17.671875 -6.113281 17.289062 -4.722656 16.53125 -3.515625 C 15.78125 -2.304688 14.765625 -1.363281 13.484375 -0.6875 C 12.210938 -0.0195312 10.816406 0.3125 9.296875 0.3125 C 7.898438 0.3125 6.59375 -0.00390625 5.375 -0.640625 C 4.15625 -1.285156 3.175781 -2.203125 2.4375 -3.390625 C 1.695312 -4.585938 1.328125 -5.972656 1.328125 -7.546875 C 1.328125 -9.285156 1.710938 -10.769531 2.484375 -12 C 3.265625 -13.226562 4.28125 -14.15625 5.53125 -14.78125 C 6.789062 -15.414062 8.125 -15.734375 9.53125 -15.734375 Z M 9.921875 -0.609375 C 10.867188 -0.609375 11.722656 -0.859375 12.484375 -1.359375 C 13.242188 -1.867188 13.835938 -2.597656 14.265625 -3.546875 C 14.703125 -4.503906 14.921875 -5.632812 14.921875 -6.9375 C 14.921875 -8.40625 14.671875 -9.738281 14.171875 -10.9375 C 13.679688 -12.132812 12.992188 -13.078125 12.109375 -13.765625 C 11.234375 -14.460938 10.238281 -14.8125 9.125 -14.8125 C 8.195312 -14.8125 7.347656 -14.570312 6.578125 -14.09375 C 5.816406 -13.625 5.210938 -12.914062 4.765625 -11.96875 C 4.316406 -11.019531 4.09375 -9.875 4.09375 -8.53125 C 4.09375 -7.050781 4.335938 -5.703125 4.828125 -4.484375 C 5.328125 -3.273438 6.019531 -2.328125 6.90625 -1.640625 C 7.800781 -0.953125 8.804688 -0.609375 9.921875 -0.609375 Z M 9.921875 -0.609375 "/></g></g></g><g fill="#cb1426" fill-opacity="1"><g transform="translate(175.065402, 195.262066)"><g/></g></g><g fill="#cb1426" fill-opacity="1"><g transform="translate(180.754836, 195.262066)"><g><path d="M 16.4375 -1.125 C 15.601562 -0.6875 14.648438 -0.335938 13.578125 -0.078125 C 12.503906 0.179688 11.414062 0.3125 10.3125 0.3125 C 8.53125 0.3125 6.957031 -0.0078125 5.59375 -0.65625 C 4.238281 -1.3125 3.1875 -2.234375 2.4375 -3.421875 C 1.695312 -4.617188 1.328125 -6 1.328125 -7.5625 C 1.328125 -9.164062 1.753906 -10.585938 2.609375 -11.828125 C 3.460938 -13.066406 4.609375 -14.023438 6.046875 -14.703125 C 7.484375 -15.390625 9.050781 -15.734375 10.75 -15.734375 C 11.6875 -15.734375 12.539062 -15.660156 13.3125 -15.515625 C 14.09375 -15.378906 14.972656 -15.132812 15.953125 -14.78125 L 16.3125 -11.203125 C 16.070312 -11.179688 15.84375 -11.171875 15.625 -11.171875 C 15.507812 -11.265625 15.40625 -11.382812 15.3125 -11.53125 C 15.226562 -11.6875 15.109375 -11.914062 14.953125 -12.21875 C 14.867188 -12.375 14.785156 -12.523438 14.703125 -12.671875 C 14.617188 -12.828125 14.539062 -12.953125 14.46875 -13.046875 C 13.46875 -14.222656 12.125 -14.8125 10.4375 -14.8125 C 9.238281 -14.8125 8.160156 -14.515625 7.203125 -13.921875 C 6.253906 -13.335938 5.507812 -12.523438 4.96875 -11.484375 C 4.425781 -10.441406 4.15625 -9.28125 4.15625 -8 C 4.15625 -6.613281 4.421875 -5.367188 4.953125 -4.265625 C 5.492188 -3.160156 6.242188 -2.296875 7.203125 -1.671875 C 8.171875 -1.046875 9.273438 -0.734375 10.515625 -0.734375 C 11.171875 -0.734375 11.75 -0.789062 12.25 -0.90625 C 12.75 -1.019531 13.226562 -1.21875 13.6875 -1.5 C 13.78125 -2.3125 13.828125 -3.316406 13.828125 -4.515625 C 13.828125 -5.265625 13.71875 -5.945312 13.5 -6.5625 C 13.40625 -6.800781 13.238281 -6.96875 13 -7.0625 C 12.757812 -7.164062 12.429688 -7.25 12.015625 -7.3125 C 11.660156 -7.375 11.410156 -7.4375 11.265625 -7.5 C 11.265625 -7.613281 11.265625 -7.726562 11.265625 -7.84375 C 11.273438 -7.96875 11.28125 -8.054688 11.28125 -8.109375 L 18.40625 -8.109375 C 18.40625 -8.054688 18.40625 -7.96875 18.40625 -7.84375 C 18.414062 -7.726562 18.421875 -7.613281 18.421875 -7.5 C 18.316406 -7.457031 18.203125 -7.414062 18.078125 -7.375 C 17.703125 -7.238281 17.40625 -7.109375 17.1875 -6.984375 C 16.976562 -6.867188 16.800781 -6.691406 16.65625 -6.453125 C 16.507812 -6.210938 16.4375 -5.890625 16.4375 -5.484375 Z M 16.4375 -1.125 "/></g></g></g><g fill="#cb1426" fill-opacity="1"><g transform="translate(199.435144, 195.262066)"><g><path d="M 8.234375 -6.421875 C 8.046875 -6.710938 7.882812 -6.921875 7.75 -7.046875 C 7.625 -7.179688 7.46875 -7.285156 7.28125 -7.359375 C 7.101562 -7.429688 6.859375 -7.476562 6.546875 -7.5 L 5.796875 -7.546875 L 5.796875 -2.96875 C 5.796875 -2.40625 5.84375 -1.988281 5.9375 -1.71875 C 6.039062 -1.445312 6.175781 -1.269531 6.34375 -1.1875 C 6.519531 -1.101562 6.773438 -1.03125 7.109375 -0.96875 C 7.359375 -0.925781 7.578125 -0.878906 7.765625 -0.828125 C 7.953125 -0.785156 8.148438 -0.710938 8.359375 -0.609375 L 8.328125 0 L 0.828125 0 L 0.8125 -0.609375 C 1.019531 -0.734375 1.21875 -0.820312 1.40625 -0.875 C 1.59375 -0.925781 1.804688 -0.96875 2.046875 -1 C 2.367188 -1.050781 2.601562 -1.125 2.75 -1.21875 C 2.90625 -1.3125 3.023438 -1.507812 3.109375 -1.8125 C 3.203125 -2.125 3.25 -2.613281 3.25 -3.28125 L 3.25 -12.265625 C 3.25 -12.828125 3.203125 -13.25 3.109375 -13.53125 C 3.015625 -13.8125 2.878906 -14.003906 2.703125 -14.109375 C 2.523438 -14.222656 2.242188 -14.335938 1.859375 -14.453125 C 1.453125 -14.566406 1.101562 -14.6875 0.8125 -14.8125 L 0.828125 -15.4375 L 6.296875 -15.4375 C 7.773438 -15.4375 9.066406 -15.367188 10.171875 -15.234375 C 11.273438 -15.097656 12.265625 -14.738281 13.140625 -14.15625 C 14.015625 -13.582031 14.453125 -12.695312 14.453125 -11.5 C 14.453125 -10.757812 14.242188 -10.117188 13.828125 -9.578125 C 13.410156 -9.035156 12.875 -8.609375 12.21875 -8.296875 C 11.570312 -7.992188 10.878906 -7.785156 10.140625 -7.671875 C 10.234375 -7.546875 10.703125 -6.890625 11.546875 -5.703125 C 12.171875 -4.816406 12.703125 -4.078125 13.140625 -3.484375 C 13.578125 -2.890625 14.015625 -2.332031 14.453125 -1.8125 C 14.710938 -1.539062 14.941406 -1.320312 15.140625 -1.15625 C 15.347656 -1 15.609375 -0.875 15.921875 -0.78125 C 16.234375 -0.6875 16.617188 -0.640625 17.078125 -0.640625 L 17.078125 0.03125 C 16.296875 0.21875 15.601562 0.3125 15 0.3125 C 14.15625 0.3125 13.382812 0.0546875 12.6875 -0.453125 C 11.988281 -0.972656 11.382812 -1.582031 10.875 -2.28125 C 10.363281 -2.988281 9.78125 -3.890625 9.125 -4.984375 C 8.738281 -5.640625 8.441406 -6.117188 8.234375 -6.421875 Z M 6.390625 -8.328125 C 7.398438 -8.328125 8.269531 -8.382812 9 -8.5 C 9.738281 -8.625 10.367188 -8.90625 10.890625 -9.34375 C 11.421875 -9.789062 11.6875 -10.460938 11.6875 -11.359375 C 11.6875 -12.335938 11.40625 -13.0625 10.84375 -13.53125 C 10.28125 -14 9.617188 -14.285156 8.859375 -14.390625 C 8.097656 -14.492188 7.164062 -14.546875 6.0625 -14.546875 L 5.796875 -14.546875 L 5.796875 -8.328125 Z M 6.390625 -8.328125 "/></g></g></g><g fill="#cb1426" fill-opacity="1"><g transform="translate(216.467887, 195.262066)"><g><path d="M 14.734375 0.109375 C 14.609375 0.128906 14.484375 0.140625 14.359375 0.140625 C 14.203125 0.140625 13.976562 0.117188 13.6875 0.078125 C 13.382812 0.0234375 13.15625 0 13 0 L 0.828125 0 L 0.8125 -0.578125 C 1.050781 -0.710938 1.273438 -0.804688 1.484375 -0.859375 C 1.691406 -0.921875 1.925781 -0.972656 2.1875 -1.015625 C 2.5 -1.078125 2.726562 -1.148438 2.875 -1.234375 C 3.019531 -1.316406 3.128906 -1.503906 3.203125 -1.796875 C 3.285156 -2.085938 3.328125 -2.546875 3.328125 -3.171875 L 3.328125 -12.140625 C 3.328125 -12.753906 3.273438 -13.207031 3.171875 -13.5 C 3.078125 -13.789062 2.9375 -13.992188 2.75 -14.109375 C 2.5625 -14.222656 2.242188 -14.347656 1.796875 -14.484375 C 1.734375 -14.515625 1.597656 -14.5625 1.390625 -14.625 C 1.191406 -14.6875 1 -14.753906 0.8125 -14.828125 L 0.828125 -15.4375 L 12.921875 -15.4375 C 13.035156 -15.4375 13.15625 -15.441406 13.28125 -15.453125 C 13.414062 -15.472656 13.507812 -15.488281 13.5625 -15.5 C 13.800781 -15.539062 14.015625 -15.5625 14.203125 -15.5625 C 14.367188 -15.5625 14.515625 -15.539062 14.640625 -15.5 L 14.640625 -11.828125 L 14.03125 -11.796875 C 13.894531 -11.929688 13.78125 -12.082031 13.6875 -12.25 C 13.601562 -12.414062 13.503906 -12.632812 13.390625 -12.90625 C 13.234375 -13.300781 13.078125 -13.609375 12.921875 -13.828125 C 12.773438 -14.046875 12.550781 -14.207031 12.25 -14.3125 C 11.800781 -14.457031 11.25 -14.546875 10.59375 -14.578125 C 9.9375 -14.617188 9.179688 -14.640625 8.328125 -14.640625 C 7.316406 -14.640625 6.515625 -14.601562 5.921875 -14.53125 C 5.890625 -14.175781 5.875 -13.769531 5.875 -13.3125 L 5.875 -8.5 L 9.296875 -8.5 C 9.921875 -8.5 10.382812 -8.546875 10.6875 -8.640625 C 11 -8.734375 11.238281 -8.882812 11.40625 -9.09375 C 11.582031 -9.3125 11.816406 -9.695312 12.109375 -10.25 L 12.296875 -10.5625 L 12.96875 -10.5625 L 12.96875 -5.484375 L 12.296875 -5.4375 C 12.046875 -6.125 11.722656 -6.65625 11.328125 -7.03125 C 10.929688 -7.40625 10.40625 -7.59375 9.75 -7.59375 L 5.875 -7.59375 L 5.875 -3.609375 C 5.875 -2.773438 5.972656 -2.160156 6.171875 -1.765625 C 6.367188 -1.367188 6.648438 -1.113281 7.015625 -1 C 7.378906 -0.882812 7.898438 -0.828125 8.578125 -0.828125 L 9.75 -0.828125 C 10.738281 -0.828125 11.59375 -0.9375 12.3125 -1.15625 C 13.039062 -1.382812 13.582031 -1.847656 13.9375 -2.546875 L 14.09375 -2.921875 C 14.238281 -3.222656 14.351562 -3.453125 14.4375 -3.609375 C 14.53125 -3.765625 14.640625 -3.914062 14.765625 -4.0625 L 15.515625 -4.0625 Z M 14.734375 0.109375 "/></g></g></g><g fill="#cb1426" fill-opacity="1"><g transform="translate(232.896127, 195.262066)"><g><path d="M 15.109375 -11.15625 C 15.003906 -11.257812 14.890625 -11.40625 14.765625 -11.59375 C 14.648438 -11.78125 14.535156 -11.972656 14.421875 -12.171875 C 14.398438 -12.203125 14.335938 -12.304688 14.234375 -12.484375 C 14.128906 -12.660156 14.035156 -12.8125 13.953125 -12.9375 C 13.867188 -13.0625 13.785156 -13.164062 13.703125 -13.25 C 13.171875 -13.769531 12.582031 -14.160156 11.9375 -14.421875 C 11.300781 -14.679688 10.625 -14.8125 9.90625 -14.8125 C 8.882812 -14.8125 7.925781 -14.546875 7.03125 -14.015625 C 6.144531 -13.484375 5.4375 -12.707031 4.90625 -11.6875 C 4.375 -10.664062 4.109375 -9.457031 4.109375 -8.0625 C 4.109375 -6.632812 4.363281 -5.382812 4.875 -4.3125 C 5.394531 -3.238281 6.128906 -2.410156 7.078125 -1.828125 C 8.035156 -1.242188 9.144531 -0.953125 10.40625 -0.953125 C 11.476562 -0.953125 12.429688 -1.175781 13.265625 -1.625 C 14.109375 -2.070312 14.757812 -2.734375 15.21875 -3.609375 L 15.796875 -3.515625 L 15.6875 -1.28125 C 14.820312 -0.800781 13.828125 -0.414062 12.703125 -0.125 C 11.578125 0.164062 10.53125 0.3125 9.5625 0.3125 C 8.007812 0.3125 6.609375 -0.00390625 5.359375 -0.640625 C 4.109375 -1.285156 3.125 -2.203125 2.40625 -3.390625 C 1.6875 -4.585938 1.328125 -5.988281 1.328125 -7.59375 C 1.328125 -9.101562 1.691406 -10.476562 2.421875 -11.71875 C 3.160156 -12.957031 4.207031 -13.9375 5.5625 -14.65625 C 6.914062 -15.375 8.476562 -15.734375 10.25 -15.734375 C 11.863281 -15.734375 13.503906 -15.410156 15.171875 -14.765625 L 15.65625 -11.1875 Z M 15.109375 -11.15625 "/></g></g></g><g fill="#cb1426" fill-opacity="1"><g transform="translate(249.798487, 195.262066)"><g><path d="M 9.53125 -15.734375 C 11.019531 -15.734375 12.382812 -15.398438 13.625 -14.734375 C 14.863281 -14.066406 15.847656 -13.125 16.578125 -11.90625 C 17.304688 -10.6875 17.671875 -9.28125 17.671875 -7.6875 C 17.671875 -6.113281 17.289062 -4.722656 16.53125 -3.515625 C 15.78125 -2.304688 14.765625 -1.363281 13.484375 -0.6875 C 12.210938 -0.0195312 10.816406 0.3125 9.296875 0.3125 C 7.898438 0.3125 6.59375 -0.00390625 5.375 -0.640625 C 4.15625 -1.285156 3.175781 -2.203125 2.4375 -3.390625 C 1.695312 -4.585938 1.328125 -5.972656 1.328125 -7.546875 C 1.328125 -9.285156 1.710938 -10.769531 2.484375 -12 C 3.265625 -13.226562 4.28125 -14.15625 5.53125 -14.78125 C 6.789062 -15.414062 8.125 -15.734375 9.53125 -15.734375 Z M 9.921875 -0.609375 C 10.867188 -0.609375 11.722656 -0.859375 12.484375 -1.359375 C 13.242188 -1.867188 13.835938 -2.597656 14.265625 -3.546875 C 14.703125 -4.503906 14.921875 -5.632812 14.921875 -6.9375 C 14.921875 -8.40625 14.671875 -9.738281 14.171875 -10.9375 C 13.679688 -12.132812 12.992188 -13.078125 12.109375 -13.765625 C 11.234375 -14.460938 10.238281 -14.8125 9.125 -14.8125 C 8.195312 -14.8125 7.347656 -14.570312 6.578125 -14.09375 C 5.816406 -13.625 5.210938 -12.914062 4.765625 -11.96875 C 4.316406 -11.019531 4.09375 -9.875 4.09375 -8.53125 C 4.09375 -7.050781 4.335938 -5.703125 4.828125 -4.484375 C 5.328125 -3.273438 6.019531 -2.328125 6.90625 -1.640625 C 7.800781 -0.953125 8.804688 -0.609375 9.921875 -0.609375 Z M 9.921875 -0.609375 "/></g></g></g><g fill="#000000" fill-opacity="1"><g transform="translate(205.23544, 218.845545)"><g><path d="M 12.84375 -7.140625 C 12.914062 -7.140625 12.953125 -6.945312 12.953125 -6.5625 C 12.953125 -6.175781 12.96875 -5.910156 13 -5.765625 L 5.671875 -4.875 L 6.046875 -0.125 L 4.3125 -0.21875 C 4.3125 -1.5 4.171875 -2.96875 3.890625 -4.625 L 1.109375 -3.546875 C 0.921875 -3.546875 0.765625 -3.65625 0.640625 -3.875 C 0.410156 -4.238281 0.296875 -4.570312 0.296875 -4.875 L 3.546875 -6.03125 C 3.265625 -8.476562 3.125 -10.46875 3.125 -12 C 3.125 -13.53125 3.25 -14.722656 3.5 -15.578125 C 3.757812 -16.429688 4.132812 -17.003906 4.625 -17.296875 C 5.113281 -17.597656 5.632812 -17.75 6.1875 -17.75 C 6.75 -17.75 7.316406 -17.625 7.890625 -17.375 C 8.472656 -17.132812 9.023438 -16.828125 9.546875 -16.453125 C 10.078125 -16.085938 10.523438 -15.671875 10.890625 -15.203125 C 11.265625 -14.742188 11.453125 -14.296875 11.453125 -13.859375 C 11.453125 -13.515625 11.414062 -13.269531 11.34375 -13.125 C 10.78125 -13.925781 10.09375 -14.640625 9.28125 -15.265625 C 8.3125 -16.003906 7.398438 -16.375 6.546875 -16.375 C 5.734375 -16.375 5.191406 -15.796875 4.921875 -14.640625 C 4.785156 -14.046875 4.71875 -13.203125 4.71875 -12.109375 C 4.71875 -11.015625 4.742188 -10.015625 4.796875 -9.109375 C 4.859375 -8.210938 5.035156 -7.304688 5.328125 -6.390625 C 6.203125 -6.390625 7.191406 -6.46875 8.296875 -6.625 C 10.398438 -6.957031 11.914062 -7.128906 12.84375 -7.140625 Z M 12.84375 -7.140625 "/></g></g></g><g fill="#000000" fill-opacity="1"><g transform="translate(218.230613, 218.845545)"><g><path d="M 1.109375 -4.0625 C 1.109375 -5.738281 1.835938 -7.09375 3.296875 -8.125 C 4.453125 -8.9375 5.835938 -9.425781 7.453125 -9.59375 C 7.546875 -9.59375 7.75 -9.59375 8.0625 -9.59375 C 8.375 -9.59375 8.796875 -9.503906 9.328125 -9.328125 C 10.492188 -8.921875 11.289062 -8.210938 11.71875 -7.203125 C 11.882812 -6.804688 11.96875 -6.46875 11.96875 -6.1875 C 11.96875 -5.90625 11.960938 -5.707031 11.953125 -5.59375 C 11.953125 -3.8125 11.273438 -2.410156 9.921875 -1.390625 C 8.660156 -0.453125 7.09375 0.015625 5.21875 0.015625 C 3.863281 0.015625 2.835938 -0.296875 2.140625 -0.921875 C 1.453125 -1.546875 1.109375 -2.59375 1.109375 -4.0625 Z M 2.59375 -3.546875 C 2.59375 -2.660156 2.828125 -2.0625 3.296875 -1.75 C 3.648438 -1.519531 4.242188 -1.40625 5.078125 -1.40625 C 5.921875 -1.40625 6.660156 -1.46875 7.296875 -1.59375 C 7.941406 -1.726562 8.515625 -1.953125 9.015625 -2.265625 C 10.085938 -2.953125 10.625 -4.015625 10.625 -5.453125 C 10.625 -6.304688 10.394531 -7.003906 9.9375 -7.546875 C 9.4375 -8.128906 8.78125 -8.421875 7.96875 -8.421875 C 7.414062 -8.316406 6.859375 -8.207031 6.296875 -8.09375 C 5.734375 -7.988281 5.203125 -7.769531 4.703125 -7.4375 C 3.617188 -6.738281 2.914062 -5.441406 2.59375 -3.546875 Z M 2.59375 -3.546875 "/></g></g></g><g fill="#000000" fill-opacity="1"><g transform="translate(230.541831, 218.845545)"><g><path d="M 1.109375 -4.0625 C 1.109375 -5.738281 1.835938 -7.09375 3.296875 -8.125 C 4.453125 -8.9375 5.835938 -9.425781 7.453125 -9.59375 C 7.546875 -9.59375 7.75 -9.59375 8.0625 -9.59375 C 8.375 -9.59375 8.796875 -9.503906 9.328125 -9.328125 C 10.492188 -8.921875 11.289062 -8.210938 11.71875 -7.203125 C 11.882812 -6.804688 11.96875 -6.46875 11.96875 -6.1875 C 11.96875 -5.90625 11.960938 -5.707031 11.953125 -5.59375 C 11.953125 -3.8125 11.273438 -2.410156 9.921875 -1.390625 C 8.660156 -0.453125 7.09375 0.015625 5.21875 0.015625 C 3.863281 0.015625 2.835938 -0.296875 2.140625 -0.921875 C 1.453125 -1.546875 1.109375 -2.59375 1.109375 -4.0625 Z M 2.59375 -3.546875 C 2.59375 -2.660156 2.828125 -2.0625 3.296875 -1.75 C 3.648438 -1.519531 4.242188 -1.40625 5.078125 -1.40625 C 5.921875 -1.40625 6.660156 -1.46875 7.296875 -1.59375 C 7.941406 -1.726562 8.515625 -1.953125 9.015625 -2.265625 C 10.085938 -2.953125 10.625 -4.015625 10.625 -5.453125 C 10.625 -6.304688 10.394531 -7.003906 9.9375 -7.546875 C 9.4375 -8.128906 8.78125 -8.421875 7.96875 -8.421875 C 7.414062 -8.316406 6.859375 -8.207031 6.296875 -8.09375 C 5.734375 -7.988281 5.203125 -7.769531 4.703125 -7.4375 C 3.617188 -6.738281 2.914062 -5.441406 2.59375 -3.546875 Z M 2.59375 -3.546875 "/></g></g></g><g fill="#000000" fill-opacity="1"><g transform="translate(242.853049, 218.845545)"><g><path d="M 10.6875 -17.171875 C 10.6875 -15.796875 10.644531 -14.457031 10.5625 -13.15625 C 10.488281 -11.851562 10.421875 -10.578125 10.359375 -9.328125 C 10.296875 -8.078125 10.265625 -6.75 10.265625 -5.34375 C 10.265625 -3.945312 10.363281 -2.460938 10.5625 -0.890625 C 10.5625 -0.566406 10.5 -0.332031 10.375 -0.1875 C 10.257812 -0.0507812 10.054688 0.015625 9.765625 0.015625 C 9.097656 0.015625 8.765625 -0.535156 8.765625 -1.640625 L 8.765625 -2.34375 C 6.742188 -0.832031 5.035156 -0.078125 3.640625 -0.078125 C 3.078125 -0.078125 2.503906 -0.210938 1.921875 -0.484375 C 1.347656 -0.753906 0.804688 -1.304688 0.296875 -2.140625 C 0.222656 -2.484375 0.1875 -2.832031 0.1875 -3.1875 C 0.1875 -3.539062 0.253906 -3.96875 0.390625 -4.46875 C 0.523438 -4.976562 0.800781 -5.503906 1.21875 -6.046875 C 1.644531 -6.585938 2.15625 -7.066406 2.75 -7.484375 C 4.0625 -8.367188 5.484375 -8.8125 7.015625 -8.8125 C 7.671875 -8.8125 8.296875 -8.710938 8.890625 -8.515625 C 8.890625 -8.765625 8.90625 -9.207031 8.9375 -9.84375 C 8.976562 -10.488281 9.019531 -11.171875 9.0625 -11.890625 C 9.144531 -13.742188 9.203125 -14.835938 9.234375 -15.171875 C 9.265625 -15.503906 9.300781 -15.785156 9.34375 -16.015625 C 9.394531 -16.253906 9.472656 -16.457031 9.578125 -16.625 C 9.785156 -16.988281 10.15625 -17.171875 10.6875 -17.171875 Z M 1.75 -3.359375 C 1.75 -2.234375 2.15625 -1.671875 2.96875 -1.671875 C 3.09375 -1.671875 3.238281 -1.679688 3.40625 -1.703125 C 3.988281 -1.703125 4.707031 -1.875 5.5625 -2.21875 C 7.1875 -2.863281 8.175781 -3.421875 8.53125 -3.890625 L 8.53125 -6.734375 C 8.53125 -7.234375 8.125 -7.484375 7.3125 -7.484375 C 7.207031 -7.492188 7.070312 -7.5 6.90625 -7.5 C 6.75 -7.5 6.5 -7.460938 6.15625 -7.390625 C 5.8125 -7.328125 5.425781 -7.203125 5 -7.015625 C 4.570312 -6.828125 4.148438 -6.597656 3.734375 -6.328125 C 2.867188 -5.742188 2.273438 -5.0625 1.953125 -4.28125 C 1.816406 -3.976562 1.75 -3.671875 1.75 -3.359375 Z M 1.75 -3.359375 "/></g></g></g><g fill="#000000" fill-opacity="1"><g transform="translate(254.074211, 218.845545)"><g><path d="M 7.890625 -5.515625 C 9.453125 -5.515625 10.234375 -5.113281 10.234375 -4.3125 C 10.234375 -3.71875 9.800781 -3.019531 8.9375 -2.21875 C 7.632812 -1.039062 5.890625 -0.09375 3.703125 0.625 C 3.597656 0.625 3.484375 0.519531 3.359375 0.3125 C 3.242188 0.113281 3.15625 -0.0351562 3.09375 -0.140625 C 3.03125 -0.242188 2.984375 -0.3125 2.953125 -0.34375 C 4.585938 -0.882812 5.929688 -1.539062 6.984375 -2.3125 C 7.703125 -2.820312 8.0625 -3.238281 8.0625 -3.5625 C 8.0625 -3.894531 7.640625 -4.0625 6.796875 -4.0625 C 5.953125 -4.0625 4.71875 -3.863281 3.09375 -3.46875 C 2.351562 -3.488281 1.710938 -3.75 1.171875 -4.25 C 0.703125 -4.695312 0.46875 -5.144531 0.46875 -5.59375 C 0.46875 -6.039062 0.59375 -6.453125 0.84375 -6.828125 C 1.101562 -7.203125 1.445312 -7.550781 1.875 -7.875 C 2.300781 -8.207031 2.800781 -8.507812 3.375 -8.78125 C 4.769531 -9.457031 6.21875 -9.796875 7.71875 -9.796875 C 8.15625 -9.796875 8.582031 -9.75 9 -9.65625 C 9.34375 -9.65625 9.539062 -9.503906 9.59375 -9.203125 C 9.65625 -8.910156 9.6875 -8.421875 9.6875 -7.734375 C 8.84375 -8.117188 7.894531 -8.3125 6.84375 -8.3125 C 5.53125 -8.3125 4.445312 -8.050781 3.59375 -7.53125 C 2.707031 -7.007812 2.25 -6.335938 2.21875 -5.515625 C 2.21875 -5.117188 2.507812 -4.921875 3.09375 -4.921875 L 4.65625 -5.09375 C 6 -5.375 7.078125 -5.515625 7.890625 -5.515625 Z M 7.890625 -5.515625 "/></g></g></g></svg>